# xmcd
# 
# Track frame offsets:
#     150
#     15882
#     34907
#     58067
#     73074
#     94662
#     119043
#     136740
#     153227
#     170352
#     193319
#     218062
#     236910
#     254777
# 
# Disc length: 3659
# 
# Revision: 8
# Processed by: cddbd v1.5.2PL0 Copyright (c) Steve Scherf et al.
# Submitted via: BonkEnc v1.0.6
# 
DISCID=cc0e490e
DTITLE=BoA - OUTGROW
DYEAR=2006
DGENRE=Pop
TTITLE0=Silent Screamerz
TTITLE1=DO THE MOTION
TTITLE2=キミのとなりで
TTITLE3=OUTGROW -Ready butterfly-
TTITLE4=make a secret
TTITLE5=Everlasting
TTITLE6=LONG TIME NO SEE
TTITLE7=cosmic eyes
TTITLE8=抱きしめる
TTITLE9=Love is just what you can't see
TTITLE10=Stay My Gold
TTITLE11=soundscape
TTITLE12=With U
TTITLE13=First snow
EXTD=
EXTT0=
EXTT1=
EXTT2=
EXTT3=
EXTT4=
EXTT5=
EXTT6=
EXTT7=
EXTT8=
EXTT9=
EXTT10=
EXTT11=
EXTT12=
EXTT13=
PLAYORDER=
